<svg width="30" height="30" viewBox="0 0 30 30"  xmlns="http://www.w3.org/2000/svg">
<path d="M19.9349 7.57241L20.1763 7.60135L20.3481 7.42941L25.5211 2.25329C25.6365 2.1379 25.7743 2.04303 25.9264 1.97269C25.9268 1.97251 25.9272 1.97233 25.9276 1.97214L29.0996 0.528308C29.3422 0.417943 29.5769 0.667052 29.4711 0.894823L29.4696 0.89821L28.0246 4.07276L28.0245 4.07299C27.9556 4.22461 27.8619 4.3595 27.7446 4.47677L27.7446 4.4768L22.5683 9.65304L22.3965 9.82489L22.4255 10.0662L24.5646 27.8794C24.5646 27.8797 24.5646 27.8799 24.5646 27.8801C24.5845 28.0523 24.526 28.222 24.4043 28.3438L23.4128 29.3352C23.1345 29.6136 22.6657 29.5267 22.5058 29.1688L22.5056 29.1684L16.782 16.3982L16.4853 15.7361L15.9722 16.2492L12.3066 19.9148L12.1602 20.0612V20.2683V26.6706C12.1602 26.8214 12.102 26.9626 11.997 27.0677L12.3345 27.4051L11.997 27.0677L11.459 27.6056L11.458 27.6066C11.1806 27.8857 10.7044 27.7947 10.549 27.4312L10.5488 27.4307L8.23439 22.0293L8.15561 21.8454L7.97173 21.7666L2.57031 19.4522L2.56986 19.452C2.20707 19.297 2.11415 18.8232 2.39541 18.542L2.39644 18.5409L2.9291 18.0052C3.03753 17.8993 3.18059 17.8409 3.32731 17.8409H9.72958H9.93668L10.0831 17.6944L13.7487 14.0288L14.2617 13.5158L13.5997 13.219L0.832708 7.49545L0.832212 7.49523C0.474377 7.33528 0.387459 6.86656 0.66583 6.58819L1.65729 5.59673L1.6573 5.59674L1.65969 5.59431C1.77605 5.47636 1.94677 5.41629 2.12089 5.43635C2.12113 5.43638 2.12137 5.43641 2.12161 5.43643L19.9349 7.57241Z" stroke="black"/>
</svg>
