<?xml version="1.0" standalone="no"?>
<!DOCTYPE svg PUBLIC "-//W3C//DTD SVG 20010904//EN"
 "http://www.w3.org/TR/2001/REC-SVG-20010904/DTD/svg10.dtd">
<svg version="1.0" xmlns="http://www.w3.org/2000/svg"
 width="1000.000000pt" height="1000.000000pt" viewBox="0 0 1000.000000 1000.000000"
 preserveAspectRatio="xMidYMid meet">
<metadata>
Created by potrace 1.14, written by Peter Selinger 2001-2017
</metadata>
<g transform="translate(0.000000,1000.000000) scale(0.100000,-0.100000)"
fill="#000000" stroke="none">
<path d="M6777 6594 c-1 -1 -27 -3 -57 -5 -30 -1 -65 -6 -77 -10 -14 -5 -25
-4 -29 2 -4 8 -9 7 -15 -2 -5 -8 -9 -9 -9 -4 0 6 -9 11 -20 11 -11 0 -20 -3
-20 -7 0 -4 -12 -7 -27 -7 -29 0 -150 -9 -218 -16 -22 -2 -46 1 -54 8 -11 8
-13 8 -7 -1 7 -13 -1 -14 -99 -17 -11 0 -23 -5 -27 -11 -5 -6 -8 -6 -8 0 0 13
-91 6 -109 -9 -9 -7 -12 -7 -8 0 4 7 -6 10 -28 10 -19 -1 -35 -3 -35 -6 0 -3
-19 -4 -42 -4 -24 1 -51 -3 -62 -8 -14 -8 -17 -7 -10 4 6 11 5 11 -9 -1 -12
-9 -17 -10 -17 -2 0 8 -5 9 -18 2 -13 -7 -23 -6 -30 1 -7 7 -12 8 -12 2 0 -5
-15 -10 -32 -10 -31 0 -100 -5 -278 -20 -95 -7 -94 -7 -102 -19 -5 -6 -8 -6
-8 2 0 13 -18 12 -39 -1 -10 -7 -12 -6 -6 4 5 9 4 11 -3 6 -22 -13 -52 -15
-52 -3 0 8 -3 7 -9 -2 -6 -9 -20 -12 -40 -9 -17 2 -31 1 -31 -3 0 -9 -20 -6
-39 5 -10 7 -12 6 -6 -4 6 -10 3 -12 -12 -8 -12 3 -27 2 -34 -3 -7 -4 -21 -3
-30 2 -10 5 -20 5 -23 1 -5 -8 -82 -15 -148 -15 -16 1 -28 -2 -28 -6 0 -3 -27
-5 -60 -4 -41 1 -58 -2 -54 -9 5 -7 2 -8 -5 -3 -16 9 -81 13 -81 4 0 -4 -13
-5 -30 -4 -16 1 -30 -2 -30 -7 0 -5 -9 -4 -19 2 -11 5 -22 7 -25 2 -2 -4 -29
-7 -60 -7 -31 0 -56 -2 -56 -5 0 -3 -21 -6 -48 -7 -48 -1 -140 -8 -247 -18
-33 -4 -79 -7 -102 -8 -24 -1 -43 -4 -43 -7 0 -3 -24 -6 -53 -7 -28 -1 -83 -5
-122 -8 -38 -4 -81 -8 -95 -9 -14 -1 -30 -5 -37 -9 -6 -4 -14 -3 -18 3 -4 6
-12 7 -18 3 -7 -4 -28 -9 -47 -10 -19 -2 -53 -4 -75 -6 -22 -1 -46 -6 -52 -10
-8 -5 -13 -4 -13 3 0 8 -6 7 -21 -1 -17 -9 -20 -8 -14 2 6 8 4 10 -5 4 -7 -4
-36 -9 -64 -11 -28 -2 -64 -6 -79 -9 -20 -3 -26 -1 -21 8 6 9 5 9 -7 0 -8 -7
-24 -12 -34 -12 -19 0 -104 -7 -200 -16 -22 -2 -69 -6 -105 -10 -36 -3 -78 -7
-95 -10 -31 -5 -208 -18 -257 -18 -16 0 -28 -3 -28 -6 0 -3 -30 -6 -66 -6 -36
0 -67 -2 -69 -5 -2 -3 -19 -5 -37 -5 -18 1 -36 -4 -40 -9 -5 -8 -8 -7 -8 1 0
8 -9 9 -30 3 -19 -5 -30 -5 -30 1 0 6 -6 7 -12 2 -7 -4 -22 -8 -33 -9 -11 -1
-58 -4 -105 -8 -47 -4 -112 -9 -145 -12 -115 -8 -150 -12 -167 -19 -12 -5 -18
-3 -18 5 0 8 -4 9 -12 3 -7 -5 -20 -9 -28 -8 -8 1 -25 -2 -36 -6 -13 -4 -26
-3 -33 4 -7 7 -11 7 -11 0 0 -6 -18 -9 -42 -9 -24 1 -47 0 -53 -3 -5 -3 -21
-6 -35 -7 -87 -8 -192 -15 -232 -17 -27 -1 -48 -4 -48 -8 0 -3 -19 -4 -42 -4
-24 1 -47 0 -53 -4 -5 -3 -28 -6 -50 -7 -22 -1 -78 -5 -125 -9 -47 -5 -93 -8
-102 -7 -10 0 -18 -2 -18 -6 0 -4 -27 -7 -60 -6 -33 0 -60 -4 -60 -8 0 -5 -4
-7 -8 -4 -4 2 -8 -3 -9 -12 -1 -9 -4 -29 -7 -44 -2 -16 0 -28 5 -28 6 0 7 -5
3 -12 -5 -7 -7 -28 -6 -48 0 -19 2 -78 3 -130 1 -52 6 -105 10 -116 4 -12 5
-25 1 -28 -9 -9 -8 -86 1 -86 4 0 7 -5 7 -11 0 -5 -4 -8 -8 -5 -4 2 -8 -4 -8
-15 0 -10 4 -19 9 -19 5 0 4 -7 -3 -15 -9 -10 -9 -15 -1 -15 6 0 11 -5 11 -11
0 -5 -5 -7 -12 -3 -7 5 -8 3 -2 -7 13 -21 14 -39 1 -39 -8 0 -8 -3 1 -9 8 -5
11 -21 9 -44 -2 -21 0 -37 5 -37 5 0 4 -9 -2 -20 -8 -14 -8 -20 0 -20 6 0 8
-5 5 -10 -5 -9 -6 -57 -2 -228 0 -24 9 -41 30 -60 16 -15 42 -39 58 -54 16
-15 29 -22 29 -16 0 6 3 8 7 4 5 -4 8 -11 8 -15 0 -4 18 -23 40 -42 22 -19 41
-37 43 -41 2 -5 10 -8 18 -8 9 0 13 -4 10 -9 -7 -11 18 -33 27 -24 4 3 7 -1 7
-10 0 -9 5 -17 11 -17 6 0 26 -16 45 -36 19 -20 34 -33 34 -29 0 4 16 -10 35
-31 19 -21 35 -34 35 -29 0 5 20 -13 45 -38 25 -26 45 -45 45 -42 0 3 23 -17
50 -44 28 -28 50 -48 50 -46 0 2 11 -7 25 -20 13 -14 29 -25 35 -25 6 0 8 -4
5 -10 -3 -5 -1 -10 4 -10 6 0 29 -17 51 -37 22 -21 59 -55 80 -75 22 -20 40
-34 40 -31 0 3 8 -4 19 -15 10 -12 24 -22 30 -22 7 0 9 -4 6 -10 -3 -5 -2 -10
3 -10 5 0 22 -13 38 -30 16 -16 35 -30 42 -30 7 0 10 -4 7 -10 -3 -5 -2 -10 2
-10 5 0 31 -21 59 -46 75 -70 94 -85 94 -79 0 3 23 -17 50 -45 28 -27 54 -50
58 -50 4 0 15 -8 23 -17 9 -10 40 -38 69 -63 29 -25 63 -56 76 -70 13 -14 24
-21 24 -17 0 4 6 2 14 -5 8 -7 12 -16 9 -20 -2 -5 2 -8 9 -8 8 0 20 -9 28 -20
8 -11 20 -20 28 -20 7 0 10 -4 7 -10 -3 -5 0 -10 7 -10 8 0 26 -14 41 -31 15
-17 27 -27 27 -23 0 5 5 1 11 -9 6 -9 15 -14 21 -11 6 4 8 3 5 -3 -3 -5 3 -17
14 -26 11 -10 17 -22 14 -27 -4 -6 7 -16 24 -23 17 -7 28 -16 24 -20 -3 -4 0
-7 8 -7 9 0 25 -9 37 -20 12 -11 25 -20 30 -20 5 0 17 -10 28 -21 18 -20 26
-21 114 -15 52 4 115 9 140 13 25 3 64 6 88 7 23 0 42 3 42 7 0 3 23 5 50 5
28 -1 50 2 50 5 0 3 12 5 28 4 15 -1 37 2 48 6 13 4 26 3 33 -4 7 -7 11 -7 11
-1 0 6 6 11 13 11 6 0 46 4 87 9 41 4 90 8 107 7 18 0 31 2 29 6 -2 3 17 6 42
5 26 0 52 2 57 5 6 3 21 6 35 7 14 1 52 4 85 7 33 4 89 9 125 13 109 10 117
11 130 19 9 6 11 4 5 -5 -6 -10 -4 -11 6 -4 16 10 25 11 126 16 40 1 73 6 73
9 0 3 17 7 38 8 20 1 57 4 82 7 25 3 55 6 68 7 12 0 22 6 22 12 0 5 4 4 8 -2
6 -9 17 -10 41 -3 19 5 37 7 42 5 4 -3 19 -1 33 5 17 6 26 6 26 -1 0 -6 6 -6
18 -1 9 6 51 13 92 16 41 4 95 9 120 12 25 3 56 6 70 7 14 1 28 7 32 12 5 6 8
5 8 -3 0 -9 5 -10 18 -4 9 5 32 8 50 7 18 -1 32 3 32 9 0 6 5 4 10 -4 5 -8 10
-10 10 -4 0 6 15 11 33 12 46 1 140 10 190 18 23 3 59 6 80 7 20 0 37 3 37 7
0 3 16 6 35 5 19 -1 35 2 35 8 0 5 6 5 13 -2 8 -6 17 -7 21 -3 4 4 31 8 59 9
29 1 52 2 52 3 0 4 48 10 125 16 46 3 95 10 108 15 15 6 21 5 17 -1 -4 -6 2
-7 18 -1 13 5 58 12 98 16 107 9 147 13 214 20 33 4 79 8 102 9 24 0 43 4 43
7 0 3 24 5 54 5 30 -1 52 2 50 5 -2 4 6 7 19 7 12 0 49 3 81 6 33 4 82 9 110
12 59 5 84 8 181 19 39 5 88 9 110 11 22 1 40 3 40 4 0 6 161 21 228 22 15 0
27 5 27 12 0 6 5 4 10 -4 5 -8 10 -10 10 -4 0 6 10 10 23 9 12 -1 27 2 34 7 7
5 14 5 18 -2 3 -6 11 -8 16 -5 19 12 49 13 49 2 0 -9 2 -9 8 0 5 7 40 15 82
18 42 3 78 11 82 18 6 9 8 9 8 -2 0 -11 3 -11 15 -1 8 7 15 9 15 5 0 -4 8 -1
17 6 14 12 15 12 9 1 -7 -11 -4 -12 10 -4 11 5 31 9 47 8 15 -1 27 1 27 4 0 3
10 5 23 6 32 1 185 15 232 21 22 3 59 6 82 7 24 0 43 4 43 8 0 3 15 5 33 4 17
-2 43 1 56 6 15 5 28 4 36 -2 7 -6 16 -7 19 -2 2 4 44 9 93 10 48 1 99 4 113
7 22 4 131 15 200 19 14 1 31 5 38 9 7 5 12 4 12 -2 0 -7 8 -7 23 -2 12 4 30
7 40 6 9 -2 17 0 17 3 0 4 27 7 59 6 33 0 58 2 56 5 -2 3 13 6 33 7 21 0 66 4
102 8 36 3 94 9 130 12 36 3 74 6 85 7 11 1 23 7 27 12 5 6 8 5 8 -3 0 -7 4
-10 10 -7 5 3 29 8 52 11 128 13 128 13 130 47 2 45 3 51 10 63 4 6 1 20 -7
30 -8 10 -15 15 -15 9 0 -5 -22 -10 -50 -9 -27 0 -55 -3 -62 -7 -6 -4 -21 -3
-31 3 -14 7 -17 7 -13 -1 5 -7 -6 -11 -31 -12 -52 -1 -86 -4 -293 -24 -19 -2
-35 -4 -35 -5 0 -1 -18 -3 -40 -5 -22 -1 -40 -4 -40 -5 0 -1 -22 -4 -50 -6
-27 -2 -62 -5 -77 -7 -26 -4 -34 5 -25 30 2 8 48 13 134 16 24 1 43 4 43 7 0
3 15 5 33 4 17 0 38 4 45 9 8 6 12 5 12 -2 0 -7 5 -9 10 -6 6 4 34 9 63 12 29
3 69 8 89 13 23 5 40 4 47 -3 7 -7 11 -7 11 -1 0 6 10 10 23 11 36 1 148 12
197 19 25 3 50 7 57 7 6 0 10 12 9 26 -1 14 2 32 7 39 6 8 6 12 -2 12 -8 0 -9
6 -2 18 6 11 6 24 0 35 -6 9 -6 17 -2 17 4 0 8 97 8 215 0 118 2 215 5 215 3
0 5 65 5 144 0 127 -2 146 -20 170 -11 14 -23 26 -28 26 -4 0 -18 9 -29 20
-12 11 -26 19 -32 17 -5 -2 -19 6 -32 17 -36 33 -47 41 -81 55 -18 7 -33 16
-33 20 0 4 -16 13 -35 20 -19 7 -35 17 -35 22 0 5 -5 9 -11 9 -6 0 -24 9 -40
21 -16 11 -38 21 -48 22 -11 0 -19 4 -18 7 1 3 -1 5 -4 5 -4 0 -15 7 -25 16
-11 9 -39 27 -64 40 -25 13 -48 29 -52 34 -4 6 -8 6 -8 2 0 -4 -10 1 -22 13
-12 11 -30 20 -40 20 -10 0 -18 5 -18 10 0 6 -5 10 -11 10 -6 0 -17 7 -26 15
-8 8 -19 13 -24 10 -5 -4 -9 -1 -9 5 0 6 -4 8 -10 5 -5 -3 -10 1 -10 10 0 9
-4 13 -10 10 -5 -3 -10 -1 -10 5 0 6 -4 9 -9 5 -5 -3 -16 1 -24 9 -8 8 -17 12
-21 9 -3 -4 -6 -1 -6 5 0 7 -7 12 -15 12 -7 0 -18 7 -23 16 -5 9 -12 15 -15
15 -18 -3 -27 0 -39 12 -7 6 -34 23 -60 36 -27 13 -48 28 -48 33 0 5 -4 7 -9
4 -5 -3 -14 1 -21 9 -7 8 -19 15 -26 15 -8 0 -14 5 -14 11 0 5 -4 8 -9 4 -6
-3 -13 1 -18 8 -8 13 -34 27 -62 33 -8 1 -18 10 -23 18 -5 9 -15 16 -22 16 -7
0 -25 9 -38 20 -14 10 -28 16 -32 13 -3 -3 -6 -1 -6 5 0 7 -6 12 -14 12 -8 0
-16 3 -18 8 -1 4 -25 18 -53 32 -27 14 -58 34 -67 44 -10 10 -18 16 -18 12 0
-4 -15 1 -32 11 -31 17 -39 23 -72 51 -9 7 -17 11 -18 10 -5 -3 -143 76 -146
84 -2 4 -10 8 -18 8 -8 0 -17 6 -20 14 -3 8 -12 12 -20 9 -8 -3 -14 -1 -14 5
0 5 -10 12 -23 16 -13 3 -34 14 -46 26 -13 11 -27 17 -31 15 -4 -3 -10 2 -14
10 -3 8 -12 15 -21 15 -8 0 -15 5 -15 11 0 6 -6 9 -14 6 -8 -3 -17 0 -19 8 -3
7 -31 25 -61 40 -31 15 -56 31 -56 36 0 5 -3 8 -7 7 -14 -3 -63 25 -63 35 0 6
-3 7 -7 4 -3 -4 -12 -2 -20 4 -19 16 -75 48 -95 55 -10 4 -18 11 -18 16 0 5
-4 7 -9 3 -5 -3 -17 5 -25 17 -10 14 -16 17 -16 8 0 -10 -4 -8 -13 5 -11 14
-29 18 -81 20 -36 1 -67 0 -69 -1z m-4986 -2521 c13 -16 12 -17 -3 -4 -10 7
-18 15 -18 17 0 8 8 3 21 -13z"/>
</g>
</svg>
